<?xml version="1.0" encoding="UTF-8"?>
<svg id="animated-logo" data-name="Animated Francisco Logo" xmlns="http://www.w3.org/2000/svg" viewBox="0 0 363.75 58.04">
  <defs>
    <style>
      .letter {
        fill: transparent;
        stroke: currentColor;
        stroke-width: 0.5;
        stroke-dasharray: 1000;
        stroke-dashoffset: 1000;
        animation: draw 0.8s ease-in-out forwards, fill 0.4s ease-in-out forwards;
      }

      .letter-f { animation-delay: 0s; }
      .letter-r { animation-delay: 0.1s; }
      .letter-a { animation-delay: 0.2s; }
      .letter-n { animation-delay: 0.3s; }
      .letter-c1 { animation-delay: 0.4s; }
      .letter-i { animation-delay: 0.5s; }
      .letter-s { animation-delay: 0.6s; }
      .letter-c2 { animation-delay: 0.7s; }
      .letter-o { animation-delay: 0.8s; }
      .letter-dot { animation-delay: 0.9s; }

      @keyframes draw {
        0% {
          stroke-dashoffset: 1000;
          fill: transparent;
        }
        70% {
          stroke-dashoffset: 0;
          fill: transparent;
        }
        100% {
          stroke-dashoffset: 0;
          fill: transparent;
        }
      }

      @keyframes fill {
        0% {
          fill: transparent;
        }
        100% {
          fill: currentColor;
          stroke: transparent;
        }
      }

      .letter-f { animation: draw 0.8s ease-in-out 0s forwards, fill 0.4s ease-in-out 0.6s forwards; }
      .letter-r { animation: draw 0.8s ease-in-out 0.1s forwards, fill 0.4s ease-in-out 0.7s forwards; }
      .letter-a { animation: draw 0.8s ease-in-out 0.2s forwards, fill 0.4s ease-in-out 0.8s forwards; }
      .letter-n { animation: draw 0.8s ease-in-out 0.3s forwards, fill 0.4s ease-in-out 0.9s forwards; }
      .letter-c1 { animation: draw 0.8s ease-in-out 0.4s forwards, fill 0.4s ease-in-out 1.0s forwards; }
      .letter-i { animation: draw 0.8s ease-in-out 0.5s forwards, fill 0.4s ease-in-out 1.1s forwards; }
      .letter-s { animation: draw 0.8s ease-in-out 0.6s forwards, fill 0.4s ease-in-out 1.2s forwards; }
      .letter-c2 { animation: draw 0.8s ease-in-out 0.7s forwards, fill 0.4s ease-in-out 1.3s forwards; }
      .letter-o { animation: draw 0.8s ease-in-out 0.8s forwards, fill 0.4s ease-in-out 1.4s forwards; }
      .letter-dot { animation: draw 0.8s ease-in-out 0.9s forwards, fill 0.4s ease-in-out 1.5s forwards; }
    </style>
  </defs>

  <g id="Layer_1-2" data-name="Layer 1">
    <g>
      <!-- F -->
      <path class="letter letter-f" d="M0,57.12V0h38.18v9.2H10.5v15.79h24.23v9.28H10.5v22.85H0Z"/>
      <!-- r -->
      <path class="letter letter-r" d="M41.27,57.12V15.41h9.51v9.28l-.77-1.38c.97-3.12,2.49-5.29,4.56-6.52,2.07-1.23,4.56-1.84,7.48-1.84h2.45v8.97h-3.6c-2.86,0-5.16.87-6.9,2.61-1.74,1.74-2.61,4.19-2.61,7.36v23.23h-10.12Z"/>
      <!-- a -->
      <path class="letter letter-a" d="M81.45,58.04c-2.91,0-5.46-.49-7.63-1.46-2.17-.97-3.85-2.36-5.02-4.18-1.18-1.81-1.76-3.92-1.76-6.33s.52-4.36,1.57-6.17c1.05-1.81,2.65-3.33,4.79-4.56,2.15-1.23,4.85-2.1,8.13-2.61l13.57-2.22v7.67l-11.65,2.07c-1.99.36-3.48.98-4.45,1.88-.97.89-1.46,2.08-1.46,3.56s.55,2.57,1.65,3.41c1.1.84,2.47,1.27,4.1,1.27,2.1,0,3.95-.45,5.56-1.34,1.61-.89,2.85-2.13,3.72-3.72.87-1.58,1.3-3.3,1.3-5.14v-10.81c0-1.79-.69-3.28-2.07-4.48-1.38-1.2-3.22-1.8-5.52-1.8-2.15,0-4.05.59-5.71,1.76-1.66,1.18-2.88,2.68-3.64,4.52l-8.2-3.99c.82-2.2,2.11-4.1,3.87-5.71,1.76-1.61,3.85-2.88,6.25-3.79,2.4-.92,5.01-1.38,7.82-1.38,3.42,0,6.44.63,9.05,1.88,2.61,1.25,4.64,3,6.1,5.25,1.46,2.25,2.19,4.83,2.19,7.74v27.75h-9.51v-7.13l2.15-.08c-1.07,1.74-2.36,3.22-3.87,4.45-1.51,1.23-3.19,2.15-5.06,2.76-1.87.61-3.95.92-6.25.92Z"/>
      <!-- n -->
      <path class="letter letter-n" d="M112.6,57.12V15.41h9.51v8.2l-.77-1.46c.97-2.5,2.57-4.41,4.79-5.71,2.22-1.3,4.82-1.96,7.78-1.96s5.79.67,8.17,1.99c2.38,1.33,4.23,3.18,5.56,5.56,1.33,2.38,1.99,5.12,1.99,8.24v26.83h-10.04v-24.46c0-1.84-.36-3.42-1.07-4.75-.72-1.33-1.71-2.35-2.99-3.07-1.28-.72-2.74-1.07-4.37-1.07s-3.09.36-4.37,1.07c-1.28.72-2.27,1.74-2.99,3.07-.72,1.33-1.07,2.91-1.07,4.75v24.46h-10.12Z"/>
      <!-- c -->
      <path class="letter letter-c1" d="M177.54,58.04c-4.19,0-7.92-.96-11.19-2.88-3.27-1.92-5.87-4.52-7.78-7.82-1.92-3.3-2.88-7.02-2.88-11.16s.95-7.85,2.84-11.12c1.89-3.27,4.48-5.85,7.78-7.74,3.3-1.89,7.04-2.84,11.23-2.84,2.96,0,5.72.52,8.28,1.57,2.56,1.05,4.77,2.49,6.63,4.33,1.87,1.84,3.21,3.99,4.03,6.44l-8.82,3.91c-.77-2.15-2.06-3.85-3.87-5.1-1.81-1.25-3.9-1.88-6.25-1.88-2.2,0-4.15.52-5.87,1.57-1.71,1.05-3.06,2.53-4.03,4.45-.97,1.92-1.46,4.08-1.46,6.48s.48,4.63,1.46,6.52c.97,1.89,2.31,3.37,4.03,4.45,1.71,1.07,3.67,1.61,5.87,1.61,2.4,0,4.48-.64,6.25-1.92,1.76-1.28,3.05-2.99,3.87-5.14l8.82,3.99c-.82,2.35-2.15,4.46-3.99,6.33-1.84,1.87-4.04,3.32-6.59,4.37-2.56,1.05-5.34,1.57-8.36,1.57Z"/>
      <!-- i -->
      <path class="letter letter-i" d="M202.66,10.73V0h10.12v10.73h-10.12ZM202.66,57.12V15.41h10.12v41.71h-10.12Z"/>
      <!-- s -->
      <path class="letter letter-s" d="M237.02,58.04c-4.45,0-8.32-1.06-11.62-3.18-3.3-2.12-5.58-5-6.86-8.62l7.59-3.6c1.07,2.35,2.57,4.19,4.49,5.52s4.05,1.99,6.4,1.99c1.79,0,3.22-.41,4.29-1.23,1.07-.82,1.61-1.89,1.61-3.22,0-.82-.22-1.49-.65-2.03-.43-.54-1.01-1-1.73-1.38-.72-.38-1.53-.7-2.45-.96l-6.82-1.92c-3.48-.97-6.12-2.52-7.94-4.64-1.81-2.12-2.72-4.61-2.72-7.47,0-2.56.65-4.79,1.96-6.71,1.3-1.92,3.12-3.41,5.44-4.49,2.33-1.07,5-1.61,8.01-1.61,3.94,0,7.41.95,10.43,2.84,3.02,1.89,5.16,4.55,6.44,7.97l-7.67,3.6c-.72-1.89-1.92-3.39-3.6-4.48-1.69-1.1-3.58-1.65-5.67-1.65-1.69,0-3.02.37-3.99,1.11-.97.74-1.46,1.75-1.46,3.03,0,.72.2,1.35.61,1.92.41.56.98,1.02,1.72,1.38.74.36,1.6.69,2.57,1l6.67,1.99c3.42,1.02,6.07,2.56,7.94,4.6,1.87,2.04,2.8,4.55,2.8,7.51,0,2.5-.67,4.71-1.99,6.63s-3.17,3.41-5.52,4.49c-2.35,1.07-5.11,1.61-8.28,1.61Z"/>
      <!-- c -->
      <path class="letter letter-c2" d="M279.08,58.04c-4.19,0-7.92-.96-11.19-2.88-3.27-1.92-5.87-4.52-7.78-7.82-1.92-3.3-2.88-7.02-2.88-11.16s.95-7.85,2.84-11.12c1.89-3.27,4.49-5.85,7.78-7.74,3.3-1.89,7.04-2.84,11.23-2.84,2.96,0,5.72.52,8.28,1.57,2.56,1.05,4.77,2.49,6.63,4.33,1.87,1.84,3.21,3.99,4.03,6.44l-8.82,3.91c-.77-2.15-2.06-3.85-3.87-5.1-1.81-1.25-3.9-1.88-6.25-1.88-2.2,0-4.15.52-5.87,1.57-1.71,1.05-3.06,2.53-4.03,4.45-.97,1.92-1.46,4.08-1.46,6.48s.48,4.63,1.46,6.52c.97,1.89,2.31,3.37,4.03,4.45,1.71,1.07,3.67,1.61,5.87,1.61,2.4,0,4.48-.64,6.25-1.92,1.76-1.28,3.05-2.99,3.87-5.14l8.82,3.99c-.82,2.35-2.15,4.46-3.99,6.33-1.84,1.87-4.04,3.32-6.59,4.37-2.56,1.05-5.34,1.57-8.36,1.57Z"/>
      <!-- o -->
      <path class="letter letter-o" d="M323.82,58.04c-4.04,0-7.73-.95-11.08-2.84s-6.02-4.47-8.01-7.74c-1.99-3.27-2.99-7-2.99-11.19s1-7.92,2.99-11.19c1.99-3.27,4.65-5.85,7.97-7.74,3.32-1.89,7.03-2.84,11.12-2.84s7.87.95,11.19,2.84c3.32,1.89,5.97,4.46,7.94,7.71,1.97,3.25,2.95,6.99,2.95,11.23s-1,7.92-2.99,11.19c-1.99,3.27-4.65,5.85-7.97,7.74-3.32,1.89-7.03,2.84-11.12,2.84ZM323.82,48.84c2.3,0,4.31-.54,6.02-1.61,1.71-1.07,3.07-2.57,4.06-4.48,1-1.92,1.5-4.08,1.5-6.48s-.5-4.55-1.5-6.44c-1-1.89-2.35-3.37-4.06-4.45-1.71-1.07-3.72-1.61-6.02-1.61s-4.24.54-5.98,1.61c-1.74,1.07-3.1,2.56-4.1,4.45-1,1.89-1.5,4.04-1.5,6.44s.5,4.56,1.5,6.48c1,1.92,2.36,3.41,4.1,4.48,1.74,1.07,3.73,1.61,5.98,1.61Z"/>
      <!-- . -->
      <path class="letter letter-dot" d="M353.63,57.12v-10.73h10.12v10.73h-10.12Z"/>
    </g>
  </g>
</svg>